<svg width="612" height="640" viewBox="0 0 612 640" fill="none" xmlns="http://www.w3.org/2000/svg">
<path d="M169.525 512.709C206.38 496.194 261.046 488.956 295.527 514.168C306.02 521.84 315.283 531.198 326.895 537.303C338.116 543.204 349.704 544.627 361.976 546.65C374.67 548.743 379 552.039 384.656 563.091C395.966 585.189 416.488 584.795 437.71 577.807C447.656 574.532 459.854 569.215 463.573 558.45C469.194 542.179 462.661 523.144 454.023 509.328C440.88 488.307 415.403 459.719 430.083 432.961C441.75 411.693 475.592 425.982 488.11 438.927C496.741 447.852 501.265 458.471 502.435 470.747C503.774 484.808 508.802 493.059 520.804 501.174C547.733 519.384 579.836 534.321 610 546.12M391.553 311.051C370.086 327.481 348.486 333.394 324.434 329.118M324.434 329.118C318.455 328.055 312.323 326.362 306.005 324.044C281.033 314.883 254.796 303.065 233.322 287.186C225.178 281.164 218.848 280.028 208.652 282.545C182.921 288.898 159.907 302.695 137.76 316.752C112.204 332.972 84.8527 349.319 72.1725 378.005C64.3239 395.761 56.7209 417.581 42.6617 431.635C35.8299 438.464 26.8848 443.675 18.0582 447.478C12.5435 449.855 7.84695 448.963 2.67277 449.998C0.0626001 450.519 5.73461 454.532 7.97809 455.964C19.1494 463.095 33.1584 465.715 46.2428 465.974C86.0436 466.762 125.744 449.55 162.628 436.607C181.31 430.051 200.262 424.306 218.865 417.515C232.331 412.598 248.888 406.965 258.787 395.97C269.705 383.843 278.13 356.021 296.057 350.693C301.288 349.138 306.709 351.927 311.575 353.278C318.612 355.232 321.986 344.546 322.584 339.821C323.032 336.276 323.636 332.683 324.434 329.118ZM324.434 329.118C328.007 313.162 335.477 297.759 350.371 289.639C380.216 273.365 413.915 278.44 440.627 297.66C469.27 318.269 505.664 334.528 540.5 341.28C554.551 344.003 587.548 347.47 594.482 330.143M415.427 126.098C403.756 137.604 392.018 149.36 378.688 158.978C350.876 179.046 317.151 188.149 284.494 196.964L284.253 197.029C255.577 204.77 226.468 212.891 197.113 217.646C181.714 220.141 170.415 219.882 156.395 214.398M398.715 7.96623C398.715 28.1553 397.955 50.9748 412.841 66.8993C434.204 89.7528 478.581 104.43 508.536 95.0732M340.224 2C336.741 18.2476 343.764 31.603 345.331 47.6085C347.787 72.7081 337.637 94.3233 319.931 111.646C291.943 139.029 253.859 165.301 213.148 160.473M213.148 160.473C209.305 160.017 205.439 159.284 201.556 158.249C189.321 154.987 177.681 153.453 169.26 143.201C162.92 135.482 156.588 124.925 155.4 114.828C153.503 98.7149 156.123 82.5179 167.801 70.5453C180.361 57.6685 195.046 51.4031 212.498 49.4647C219.973 48.6345 226.281 48.5865 232.858 52.9118C246.246 61.7168 246.523 76.8995 245.789 91.5597C244.762 112.104 236.712 129.583 224.435 145.852C220.733 150.758 216.966 155.63 213.148 160.473ZM213.148 160.473C198.426 179.147 182.958 197.383 167.63 215.457L167.403 215.724C144.892 242.265 118.085 263.508 89.0169 282.413C68.2771 295.901 48.9784 309.501 31.0563 326.563M512.117 147.576C500.412 147.966 490.282 152.475 479.489 156.592C458.911 164.441 438.302 170.333 418.544 180.324C382.417 198.593 349.174 226.454 321.191 255.697C305.513 272.082 292.448 290.486 275.632 305.88C252.376 327.168 228.315 348.037 201.49 364.747C171.511 383.421 136.309 399.331 100.291 398.555C72.8099 397.964 47.1993 389.585 22.7004 377.872M88.3538 305.084C128.132 276.866 180.896 262.938 229.608 268.889C248.787 271.232 266.061 280.176 284.916 283.076C304.643 286.109 324.325 287.279 343.54 281.22C363.612 274.89 381.299 264.296 398.914 253.112C420.224 239.583 441.848 228.993 465.098 219.237C483.409 211.554 504.1 208.38 521.799 219.171C534.907 227.162 549.807 240.358 557.477 253.775M496.599 287.186C482.187 287.513 468.359 294.934 456.543 302.698C442.343 312.03 426.303 321.725 426.303 340.815C426.303 349.929 430.547 358.116 432.537 366.868C435.115 378.206 433.896 389.434 428.293 399.749C422.066 411.211 409.786 419.593 399.113 426.53C398.454 426.959 397.792 427.383 397.126 427.803M397.126 427.803C382.918 436.768 367.221 443.824 351.166 448.672C332.596 454.279 304.359 460.041 285.181 453.71C271.593 449.224 263.632 432.921 259.65 420.365C256.647 410.901 254.045 398.913 261.705 390.733C268.943 383.005 276.409 376.148 286.508 372.503C309.187 364.316 336.301 365.326 356.538 379.331C367.486 386.908 377.788 395.413 386.712 405.383C392.105 411.408 395.4 419.335 397.126 427.803ZM397.126 427.803C399.403 438.971 398.953 451.078 396.991 461.002C395.155 470.291 392.84 479.054 392.747 488.579C392.666 496.805 393.471 505.255 391.421 513.306C388.797 523.607 381.415 529.416 372.587 534.784C355.354 545.262 335.361 552.576 316.615 559.909C284.79 572.357 249.15 571.698 215.549 574.228C186.359 576.425 157.468 579.486 129.404 588.281C110.422 594.23 92.8558 602.022 78.6053 616.058C67.748 626.751 56.2553 633.665 41.7996 638" stroke="white" stroke-width="4" stroke-linecap="round" stroke-dasharray="12 12"/>
</svg>
