<svg width="40" height="40" viewBox="0 0 40 40" fill="none" xmlns="http://www.w3.org/2000/svg">
<path d="M22 14C26.93 14 29.726 17.148 30.132 20.948H30.256C33.428 20.948 36 23.422 36 26.474C36 29.526 33.428 32 30.256 32H13.744C10.572 32 8 29.526 8 26.474C8 23.422 10.572 20.948 13.744 20.948H13.868C14.278 17.122 17.07 14 22 14ZM16.784 8C19.696 8 22.236 9.656 23.49 12.09C22.9957 12.0294 22.498 11.9993 22 12C17.22 12 13.736 14.614 12.492 18.572L12.368 19L12.276 19.374L11.946 19.434C10.7382 19.68 9.6101 20.2211 8.66228 21.0091C7.71447 21.7971 6.97643 22.8074 6.514 23.95C5.56122 23.3695 4.81841 22.5003 4.39355 21.4686C3.96869 20.437 3.88393 19.2968 4.15158 18.2137C4.41924 17.1306 5.02536 16.161 5.88184 15.4461C6.73831 14.7311 7.8005 14.3079 8.914 14.238L9.358 14.228C9.66641 12.4827 10.5798 10.9017 11.9378 9.76282C13.2958 8.62389 15.0116 7.99976 16.784 8Z" fill="#FFB371"/>
</svg>
